<svg height="153.212853" viewBox="0 0 56.393908 13.180934" width="652.686755" xmlns="http://www.w3.org/2000/svg"><g fill="#1e3f99" transform="translate(-254.31729 495.0542)"><path d="m262.20563-485.35419c-.5581.44235-1.14515.84198-1.72806 1.27331 0 0-.33899.24529-.47542.34175l-.0827-.0152c.011-.50574-.14745-1.11345.24667-1.4745.57188-.67248 1.17684-1.31878 1.67431-2.03674 0 0 .51263-.73312.75517-1.08865.0799.0165.10749.10886.11851.1695.26321.94533.35002 1.88653-.5085 2.83049m-3.01239-.26872-.0469-.0276c-.74138-.87919-1.58199-1.87137-2.32062-2.75332-.13367-.22324-.27009-.43821-.28387-.72623-.01-.22599-.0234-.4327.16123-.71244 0 0 .12402-.17915.15709-.23289 0 0 1.51447-2.12493 2.31097-3.13366l.022-.0138.022.0138c.79513 1.00873 2.30684 3.13366 2.30684 3.13366.0358.0537.15985.23289.15985.23289.18466.27974.17225.48645.16123.71244-.0138.28802-.15021.50299-.2825.72623-.74.88195-1.58061 1.87413-2.32199 2.75332zm-.73311 1.86862-.0799.0152c-.1378-.0965-.4768-.34175-.4768-.34175-.58291-.43133-1.17133-.83096-1.72806-1.27331-.85714-.94396-.77032-1.88516-.50712-2.83049.01-.0606.0386-.15296.11713-.1695.24254.35553.75379 1.08865.75379 1.08865.49885.71796 1.10519 1.36426 1.67707 2.03674.39412.36105.23289.96876.24392 1.4745m5.36194-4.40007c-.11713-.44098-.28663-.76757-.55672-1.26642-.091-.14332-.20671-.30179-.30868-.46853-1.18512-1.75838-3.52227-4.82314-3.73587-5.0202l-.0276-.0124-.0262.0124c-.21498.19706-2.55351 3.26182-3.73724 5.0202-.10335.16674-.21773.32521-.3073.46853-.27148.49885-.4396.82544-.55811 1.26642-.14607.63803-.15296 1.43178-.0193 2.08221.11851.57327.66283 1.15755 1.20991 1.59577l.83647.66284s2.33853 1.68672 2.55489 1.79558l.0469.0124.0455-.0124c.21773-.10886 2.55626-1.79558 2.55626-1.79558l.83784-.66284c.54709-.43822 1.09003-1.0225 1.20855-1.59577.13367-.65043.12678-1.44418-.0193-2.08221"/><path d="m267.93414-484.8953h.5333c.3266 0 .53881-.19431.53881-.52917 0-.3266-.17363-.54019-.53881-.54019h-.5333zm0-1.80937h.4892c.32246 0 .52779-.14194.52779-.44924 0-.30041-.22048-.46578-.52779-.46578h-.4892zm-1.644 2.75194v-.51538c.18603-.0703.29077-.21084.29766-.36794v-2.86907c-.007-.15572-.11163-.29766-.29766-.36656v-.51539h2.31235c.41341 0 .87781-.006 1.2361.18879.3955.21084.52503.60083.52503.98392 0 .53055-.24116.89297-.83371 1.03904v.01c.68075.0772.91364.55259.91364 1.09278 0 .37896-.0978.80064-.44511 1.04456-.3762.27009-.85714.2756-1.32154.2756"/><path d="m272.67321-485.49613c-.25907.091-.80064.20533-.80064.50574 0 .1695.0813.36243.34589.36243.23427 0 .28939-.0276.45475-.12954zm.0854 1.28433c-.31006.226-.70142.32935-1.10243.32935-.68075 0-1.01975-.41892-1.01975-.97427 0-.67937.3831-.88056 1.03904-1.06936l.97841-.26458v-.31144c0-.16812-.15572-.30592-.35967-.30592-.23426 0-.39687.1378-.39687.30592v.33211h-1.09968v-.74138c.50161-.3142 1.04456-.51952 1.65089-.51952.38999 0 .71383.0551 1.04318.27147.40652.28112.41341.63803.40652 1.03353v1.25815c0 .17776-.0179.33486.18052.46026l.0868.45475h-1.32016"/><path d="m296.57253-484.8953h.5333c.32797 0 .53881-.19431.53881-.52917 0-.3266-.17225-.54019-.53881-.54019h-.5333zm0-1.80937h.49058c.32246 0 .52641-.14194.52641-.44924 0-.30041-.22048-.46578-.52641-.46578h-.49058zm-1.644 2.75194v-.51538c.18466-.0703.29214-.21084.29766-.36794v-2.86907c-.006-.15572-.113-.29766-.29766-.36656v-.51539h2.31235c.41479 0 .87918-.006 1.2361.18879.39687.21084.52503.60083.52503.98392 0 .53055-.23978.89297-.83371 1.03904v.01c.67937.0772.91501.55259.91501 1.09278 0 .37896-.0978.80064-.4451 1.04456-.37758.27009-.8599.2756-1.32292.2756"/><path d="m301.29231-485.49613c-.25907.091-.80064.20533-.80064.50574 0 .1695.0827.36243.34589.36243.23426 0 .28939-.0276.45475-.12954zm.0854 1.28433c-.31006.226-.70005.32935-1.10243.32935-.67937 0-1.01975-.41892-1.01975-.97427 0-.67937.38309-.88056 1.03904-1.06936l.97703-.26458v-.31144c0-.16812-.15434-.30592-.35691-.30592-.23565 0-.39826.1378-.39826.30592v.33211h-1.09829v-.74138c.50023-.3142 1.04317-.51952 1.64951-.51952.38998 0 .7152.0551 1.04317.27147.4079.28112.41342.63803.4079 1.03353v1.25815c0 .17776-.0193.33486.17915.46026l.0868.45475h-1.31879"/><path d="m275.83168-487.1484c.40238-.23702.80753-.28938 1.00734-.28249.30317.011.52366.0978.67249.22737.26734.22187.29765.47129.29765.76344v1.54478c0 .16674.0689.35553.26183.44786v.49471h-1.46624c-.0854-.34588-.0799-.70831-.0799-1.05971v-1.18787c0-.0207.0179-.17776-.0427-.30316-.1006-.12954-.34864-.226-.58842-.12954v1.77629c0 .16674-.0193.35554.17914.44786v.45613h-1.73219v-.45613c.19292-.0978.26734-.25356.26734-.42719v-1.531c0-.18466-.0799-.30317-.26734-.42168v-.57188h1.49104"/><path d="m304.5059-487.1484c.40238-.23702.8089-.28938 1.00734-.28249.30179.011.52503.0978.67386.22737.26458.22187.29628.47129.29628.76344v1.54478c0 .16674.0689.35553.26045.44786v.49471h-1.46486c-.0854-.34588-.0813-.70831-.0813-1.05971v-1.18787c0-.0207.0193-.17776-.0413-.30316-.0992-.12954-.34865-.226-.5898-.12954v1.77629c0 .16674-.0165.35554.18052.44786v.45613h-1.73081v-.45613c.19154-.0978.26733-.25356.26733-.42719v-1.531c0-.18466-.0813-.30317-.26733-.42168v-.57188h1.48966"/><path d="m280.38196-486.57789c-.0675-.04-.2949-.0661-.37896-.0661-.42306 0-.47956.36104-.47956.54708v.78548c0 .17501.0799.6022.48507.6022.073 0 .30593-.0193.37345-.0551zm1.55167-.32522c-.19292.10198-.26734.24805-.26734.42031v2.37436c0 .38309.0179.90123-.32246 1.18924-.33349.28664-.76481.33624-1.20992.33624-.64768 0-1.09416-.22186-1.66329-.49747v-.64492h1.17822c0 .0372.006.24943.0441.3266.0427.0758.19982.12815.31557.12815.32108 0 .37345-.44924.37345-.64354v-.21773c-.26045.17363-.62563.24942-.904.24942-.96324 0-1.20027-.62011-1.20027-1.36701v-.66697c0-.74138.0827-1.51446 1.13275-1.51446.34589 0 .73174.0813 1.00872.26596v-.19431h1.51447"/><path d="m283.51562-486.22787.46991-.34726c.16536-.15985.20395-.35278.20395-.64906v-.13642h1.39044v.45613c-.051.022-.18604.0703-.29077.18328l-.7965.70142.7965 1.14653c.0978.17776.17226.36655.4079.46439v.45613h-1.24023l-.9288-1.48276h-.0124v.57877c0 .18328.0703.32384.26734.44786v.45613h-1.73082v-.45613c.18604-.12402.26734-.24253.26734-.42719v-2.84702c0-.18328-.0689-.32384-.26734-.44787v-.45751h1.46348"/><path d="m308.39885-486.22787.46854-.34726c.16536-.15985.20394-.35278.20394-.64906v-.13642h1.39045v.45613c-.0496.022-.18466.0703-.29215.18328l-.79513.70142.79513 1.14653c.1006.17776.17501.36655.40928.46439v.45613h-1.24024l-.92741-1.48276h-.0124v.57877c0 .18328.0675.32384.26734.44786v.45613h-1.7322v-.45613c.18742-.12402.26734-.24253.26734-.42719v-2.84702c0-.18328-.0689-.32384-.26734-.44787v-.45751h1.46486"/><path d="m290.75169-486.22787.46854-.34726c.16398-.15985.20395-.35278.20395-.64906v-.13642h1.39044v.45613c-.0482.022-.18604.0703-.28939.18328l-.79788.70142.79788 1.14653c.0978.17776.17226.36655.4079.46439v.45613h-1.24024l-.92879-1.48276h-.0124v.57877c0 .18328.0689.32384.26734.44786v.45613h-1.73081v-.45613c.18465-.12402.26733-.24253.26733-.42719v-2.84702c0-.18328-.0689-.32384-.26733-.44787v-.45751h1.46347"/><path d="m287.02135-484.9711c0 .18466.13918.46578.41616.46578.30455 0 .42031-.28112.42031-.46578v-1.32842c0-.18328-.10336-.50712-.41755-.50712-.31281 0-.41892.31695-.41892.50712zm2.15387-.27836c0 .37896-.0124.80477-.3638 1.07074-.35278.26458-.8723.29627-1.31741.29627-.40239 0-.97151-.0262-1.31051-.22737-.47818-.27561-.47818-.69178-.47818-1.13964v-.88746c0-.36931.007-.76894.37207-1.01699.35278-.24391.82958-.27698 1.26917-.27698.39412 0 .98944.0276 1.32843.19981.46853.24943.50023.66146.50023 1.09416"/></g></svg>