<?xml version="1.0" encoding="utf-8"?>
<!-- Generator: Adobe Illustrator 14.0.0, SVG Export Plug-In . SVG Version: 6.00 Build 43363)  -->
<!DOCTYPE svg PUBLIC "-//W3C//DTD SVG 1.0//EN" "http://www.w3.org/TR/2001/REC-SVG-20010904/DTD/svg10.dtd">
<svg version="1.0" id="Ebene_1" xmlns="http://www.w3.org/2000/svg" xmlns:xlink="http://www.w3.org/1999/xlink" x="0px" y="0px"
	 width="290.277px" height="57.639px" viewBox="0 0 290.277 57.639" enable-background="new 0 0 290.277 57.639"
	 xml:space="preserve">
<path fill="#692E27" d="M73.063,26.936c0.449,0.101,0.896,0.251,1.333,0.45c0.439,0.203,0.832,0.472,1.185,0.812
	c0.35,0.337,0.63,0.743,0.846,1.215c0.214,0.479,0.318,1.044,0.318,1.692c0,0.655-0.119,1.282-0.357,1.881
	c-0.238,0.603-0.609,1.14-1.109,1.615c-0.5,0.475-1.142,0.85-1.934,1.125c-0.788,0.277-1.734,0.411-2.836,0.411h-5.973V22.392
	c0-0.476-0.038-0.94-0.113-1.389c-0.051-0.377-0.132-0.746-0.245-1.109c-0.113-0.361-0.266-0.645-0.469-0.844V19.01h6.947
	c1.733,0,3.034,0.432,3.909,1.297c0.878,0.865,1.315,1.933,1.315,3.21c0,0.801-0.25,1.522-0.75,2.161
	C74.627,26.315,73.94,26.734,73.063,26.936 M70.133,34.073c1.049,0,1.87-0.288,2.462-0.861c0.586-0.576,0.881-1.39,0.881-2.443
	c0-0.6-0.145-1.121-0.431-1.558c-0.291-0.442-0.657-0.814-1.107-1.13c-0.454-0.312-0.949-0.554-1.486-0.729
	c-0.538-0.176-1.06-0.303-1.558-0.378v-0.075c0.45-0.052,0.895-0.131,1.333-0.246c0.437-0.109,0.836-0.276,1.2-0.506
	c0.364-0.227,0.657-0.519,0.882-0.884c0.226-0.36,0.342-0.82,0.342-1.369c0-0.653-0.126-1.166-0.377-1.542
	c-0.255-0.374-0.577-0.654-0.975-0.841c-0.405-0.191-0.835-0.309-1.298-0.362c-0.465-0.047-0.922-0.074-1.372-0.074h-1.014v12.998
	H70.133z"/>
<path fill="#692E27" d="M90.374,32.869c0.175,0.431,0.378,0.858,0.6,1.278c0.202,0.351,0.434,0.711,0.7,1.072
	c0.259,0.362,0.567,0.658,0.921,0.883v0.034c-0.53,0-0.992,0.015-1.396,0.036c-0.399,0.023-0.737,0.033-1.009,0.033
	c-0.504,0-0.91-0.105-1.223-0.319c-0.315-0.212-0.627-0.694-0.939-1.444c-0.315-0.752-0.689-1.848-1.128-3.286
	c-0.439-1.44-1.03-3.377-1.783-5.804c-0.601,1.953-1.074,3.5-1.408,4.637C83.368,31.128,83.1,32,82.899,32.6
	c-0.228,0.702-0.378,1.164-0.453,1.389c-0.297,0.979-0.662,1.593-1.087,1.839c-0.427,0.252-1.003,0.378-1.726,0.378
	c-0.277,0-0.576-0.01-0.904-0.033c-0.328-0.021-0.689-0.036-1.088-0.036v-0.034c0.347-0.225,0.656-0.521,0.919-0.883
	c0.261-0.361,0.497-0.722,0.696-1.072c0.224-0.42,0.423-0.848,0.602-1.278c0.099-0.321,0.36-1.086,0.787-2.291
	c0.175-0.499,0.393-1.116,0.659-1.858c0.262-0.739,0.567-1.626,0.919-2.666c0.347-1.04,0.763-2.235,1.238-3.586
	c0.477-1.354,1.015-2.892,1.617-4.622h0.038c0.598,1.73,1.137,3.268,1.615,4.622c0.474,1.351,0.895,2.546,1.257,3.586
	c0.364,1.04,0.676,1.927,0.94,2.666c0.264,0.742,0.48,1.359,0.656,1.858C90.011,31.783,90.276,32.547,90.374,32.869"/>
<path fill="#692E27" d="M109.038,19.01v17.805c-0.203-0.024-0.436-0.092-0.695-0.207c-0.266-0.114-0.523-0.242-0.773-0.394
	c-0.274-0.174-0.551-0.362-0.824-0.563c-0.521-0.375-1.016-0.83-1.489-1.37c-0.474-0.538-0.819-0.944-1.049-1.222l-7.511-9.542
	v12.619h-2.328V22.581c0-0.452-0.05-0.89-0.151-1.319c-0.073-0.35-0.194-0.729-0.357-1.145c-0.16-0.411-0.407-0.767-0.733-1.068
	V19.01h3.87l9.709,12.247v-9.731c0-0.348-0.045-0.677-0.134-0.977c-0.107-0.273-0.253-0.544-0.438-0.809
	c-0.185-0.26-0.463-0.49-0.833-0.692V19.01H109.038"/>
<path fill="#692E27" d="M113.842,22.394c0-0.478-0.037-0.943-0.111-1.391c-0.053-0.377-0.134-0.745-0.248-1.111
	c-0.115-0.361-0.272-0.643-0.468-0.843V19.01h3.908v17.126h-3.081V22.394 M124.998,32.311c0.351,0.447,0.726,0.9,1.128,1.347
	c0.347,0.401,0.719,0.823,1.106,1.261c0.389,0.439,0.794,0.833,1.222,1.186v0.032c-0.428,0-0.82,0.015-1.184,0.039
	c-0.363,0.019-0.695,0.03-0.993,0.03c-0.752,0-1.356-0.086-1.804-0.258c-0.451-0.17-0.94-0.572-1.465-1.199
	c-0.526-0.623-1.198-1.561-2.013-2.796c-0.811-1.241-1.958-2.927-3.434-5.054c0.501-0.651,1.019-1.301,1.559-1.954
	c0.535-0.649,1.033-1.283,1.485-1.894c0.449-0.615,0.82-1.177,1.106-1.693c0.287-0.513,0.433-0.946,0.433-1.297
	c0-0.474-0.24-0.812-0.714-1.012V19.01h5.371l-6.012,7.736c1.002,1.305,1.779,2.324,2.333,3.061
	c0.546,0.743,0.961,1.299,1.239,1.674C124.683,31.932,124.897,32.207,124.998,32.311"/>
<path fill="#692E27" d="M144.671,18.598c1.354,0,2.598,0.245,3.74,0.73c1.137,0.491,2.122,1.136,2.949,1.934
	c0.824,0.801,1.46,1.731,1.914,2.785c0.452,1.049,0.675,2.166,0.675,3.341c0,1.328-0.255,2.554-0.769,3.681s-1.202,2.099-2.065,2.91
	c-0.864,0.814-1.878,1.449-3.045,1.898c-1.163,0.449-2.388,0.676-3.663,0.676c-1.274,0-2.491-0.223-3.642-0.656
	c-1.153-0.441-2.161-1.053-3.023-1.842c-0.863-0.789-1.554-1.742-2.068-2.854c-0.513-1.114-0.77-2.335-0.77-3.661
	c0-1.254,0.25-2.424,0.751-3.513c0.501-1.091,1.189-2.037,2.072-2.839c0.872-0.799,1.903-1.431,3.093-1.895
	C142.011,18.831,143.297,18.598,144.671,18.598 M144.483,20.924c-0.951,0-1.81,0.166-2.575,0.492
	c-0.762,0.321-1.413,0.769-1.95,1.331c-0.54,0.563-0.952,1.239-1.241,2.03c-0.286,0.784-0.432,1.634-0.432,2.535
	c0,0.852,0.146,1.688,0.432,2.518c0.289,0.824,0.701,1.563,1.241,2.216c0.537,0.649,1.194,1.177,1.97,1.577s1.642,0.6,2.595,0.6
	c0.925,0,1.758-0.162,2.499-0.488c0.736-0.325,1.369-0.768,1.895-1.332c0.525-0.563,0.932-1.226,1.223-1.991
	c0.285-0.765,0.43-1.599,0.43-2.498c0-0.902-0.139-1.772-0.412-2.611c-0.277-0.839-0.68-1.583-1.205-2.234
	c-0.525-0.652-1.162-1.174-1.912-1.56C146.287,21.122,145.437,20.924,144.483,20.924"/>
<path fill="#692E27" d="M166.265,19.01v3.53h-0.077c-0.173-0.3-0.413-0.532-0.71-0.694c-0.307-0.163-0.592-0.28-0.865-0.36
	c-0.329-0.095-0.664-0.147-1.016-0.147h-3.079v4.505h4.206v2.221h-4.206v8.071h-3.082V22.394c0-0.477-0.034-0.943-0.112-1.391
	c-0.049-0.377-0.131-0.746-0.242-1.111c-0.115-0.361-0.269-0.641-0.47-0.843V19.01H166.265"/>
<path fill="#692E27" d="M185.901,32.869c0.175,0.431,0.376,0.858,0.602,1.278c0.203,0.351,0.43,0.711,0.694,1.072
	c0.267,0.362,0.569,0.658,0.919,0.883v0.034c-0.523,0-0.99,0.015-1.389,0.036c-0.4,0.023-0.736,0.033-1.014,0.033
	c-0.502,0-0.91-0.105-1.222-0.319c-0.313-0.212-0.628-0.694-0.935-1.444c-0.317-0.752-0.693-1.848-1.131-3.286
	c-0.438-1.44-1.031-3.377-1.784-5.804c-0.599,1.953-1.068,3.5-1.408,4.637c-0.338,1.14-0.608,2.012-0.808,2.611
	c-0.229,0.702-0.377,1.164-0.453,1.389c-0.301,0.979-0.66,1.593-1.088,1.839c-0.424,0.252-1.002,0.378-1.728,0.378
	c-0.274,0-0.575-0.01-0.901-0.033c-0.328-0.021-0.688-0.036-1.09-0.036v-0.034c0.352-0.225,0.656-0.521,0.92-0.883
	c0.264-0.361,0.496-0.722,0.694-1.072c0.226-0.42,0.425-0.848,0.603-1.278c0.1-0.321,0.362-1.086,0.787-2.291
	c0.178-0.499,0.396-1.116,0.655-1.858c0.269-0.739,0.574-1.626,0.925-2.666c0.351-1.04,0.762-2.235,1.237-3.586
	c0.479-1.354,1.017-2.892,1.616-4.622h0.038c0.6,1.73,1.137,3.268,1.614,4.622c0.477,1.351,0.897,2.546,1.261,3.586
	c0.362,1.04,0.676,1.927,0.938,2.666c0.26,0.742,0.483,1.359,0.656,1.858C185.537,31.783,185.802,32.547,185.901,32.869"/>
<path fill="#692E27" d="M195.89,28.702v7.438h-3.076l0.039-7.402c-0.305-0.473-0.7-1.104-1.186-1.895
	c-0.488-0.787-0.977-1.573-1.467-2.349c-0.488-0.774-0.92-1.469-1.29-2.082c-0.376-0.613-0.603-0.973-0.672-1.072
	c-0.198-0.351-0.42-0.662-0.668-0.939c-0.2-0.248-0.444-0.502-0.733-0.752c-0.287-0.25-0.593-0.45-0.916-0.599v-0.04h2.725
	c0.346,0,0.749,0.044,1.199,0.134c0.453,0.086,0.813,0.343,1.09,0.764c0.076,0.127,0.254,0.426,0.543,0.886
	c0.291,0.464,0.615,0.998,0.979,1.598c0.36,0.601,0.752,1.234,1.163,1.897c0.415,0.664,0.782,1.271,1.11,1.822
	c0.627-0.927,1.169-1.722,1.634-2.387c0.46-0.663,0.843-1.231,1.14-1.71c0.305-0.474,0.523-0.855,0.662-1.144
	c0.139-0.285,0.204-0.516,0.204-0.696c0-0.198-0.053-0.385-0.167-0.562c-0.111-0.176-0.316-0.361-0.619-0.562v-0.04h4.734v0.075
	L195.89,28.702"/>
<path fill="#692E27" d="M217.597,29.678c0,2.23-0.571,3.934-1.709,5.11c-1.144,1.175-2.862,1.765-5.17,1.765
	c-2.273,0-3.998-0.568-5.162-1.707c-1.164-1.142-1.746-2.8-1.746-4.98v-6.61c0-0.501-0.051-1.003-0.152-1.503
	c-0.072-0.425-0.195-0.883-0.355-1.371c-0.162-0.488-0.405-0.934-0.731-1.332v-0.04h4.321v9.655c0,0.775,0.021,1.497,0.074,2.16
	c0.051,0.667,0.199,1.232,0.453,1.708c0.248,0.476,0.629,0.853,1.143,1.125c0.513,0.28,1.232,0.415,2.156,0.415
	c0.881,0,1.566-0.115,2.068-0.356c0.501-0.237,0.879-0.575,1.125-1.015c0.254-0.438,0.415-0.949,0.49-1.54
	c0.077-0.588,0.113-1.233,0.113-1.933v-5.974c0-0.501-0.051-1.003-0.149-1.503c-0.073-0.425-0.192-0.883-0.356-1.371
	c-0.164-0.488-0.41-0.934-0.732-1.332v-0.04h4.32V29.678"/>
<path fill="#692E27" d="M227.658,19.01c1.451,0,2.776,0.213,3.979,0.638c1.203,0.426,2.229,1.029,3.08,1.802
	c0.851,0.78,1.516,1.7,1.992,2.764c0.476,1.063,0.713,2.234,0.713,3.512c0,1.299-0.225,2.471-0.676,3.51
	c-0.453,1.043-1.09,1.925-1.917,2.649c-0.825,0.726-1.837,1.281-3.021,1.671c-1.191,0.387-2.522,0.579-4.005,0.579h-5.332v-13.86
	c0-0.474-0.035-0.925-0.113-1.352c-0.048-0.351-0.128-0.706-0.245-1.07c-0.112-0.362-0.267-0.631-0.47-0.806V19.01H227.658
	 M227.804,34.035c1.055,0,1.968-0.171,2.746-0.507c0.774-0.34,1.426-0.799,1.953-1.387c0.523-0.59,0.914-1.285,1.164-2.089
	c0.248-0.799,0.373-1.677,0.373-2.629c0-0.952-0.168-1.813-0.508-2.591c-0.336-0.775-0.805-1.441-1.406-1.992
	c-0.601-0.549-1.303-0.977-2.104-1.274c-0.801-0.305-1.676-0.456-2.627-0.456c-0.325,0-0.641,0.014-0.943,0.042
	c-0.299,0.023-0.597,0.062-0.9,0.109v12.515C226.253,33.952,227.007,34.035,227.804,34.035"/>
<path fill="#692E27" d="M256.011,19.01v17.126h-3.08v-8.071h-8.603v8.071h-3.082V22.394c0-0.477-0.036-0.943-0.11-1.391
	c-0.049-0.377-0.133-0.746-0.244-1.111c-0.113-0.361-0.272-0.641-0.471-0.843V19.01h3.907v6.834h8.603v-3.451
	c0-0.477-0.036-0.943-0.113-1.391c-0.048-0.377-0.132-0.746-0.245-1.111c-0.112-0.361-0.269-0.641-0.469-0.843V19.01H256.011"/>
<path fill="#692E27" d="M266.901,28.702v7.438h-3.081l0.038-7.402c-0.303-0.473-0.698-1.104-1.184-1.895
	c-0.488-0.787-0.979-1.573-1.467-2.349c-0.484-0.774-0.916-1.469-1.293-2.082c-0.373-0.613-0.598-0.973-0.669-1.072
	c-0.198-0.351-0.418-0.662-0.67-0.939c-0.198-0.248-0.442-0.502-0.729-0.752c-0.288-0.25-0.596-0.45-0.924-0.599v-0.04h2.727
	c0.35,0,0.752,0.044,1.203,0.134c0.453,0.086,0.813,0.343,1.09,0.764c0.074,0.127,0.256,0.426,0.543,0.886
	c0.289,0.464,0.611,0.998,0.979,1.598c0.362,0.601,0.748,1.234,1.164,1.897c0.41,0.664,0.78,1.271,1.108,1.822
	c0.624-0.927,1.17-1.722,1.635-2.387c0.459-0.663,0.843-1.231,1.146-1.71c0.299-0.474,0.517-0.855,0.654-1.144
	c0.141-0.285,0.207-0.516,0.207-0.696c0-0.198-0.056-0.385-0.168-0.562c-0.115-0.176-0.316-0.361-0.617-0.562v-0.04h4.732v0.075
	L266.901,28.702"/>
<path fill="#692E27" d="M284.433,32.869c0.178,0.431,0.377,0.858,0.604,1.278c0.199,0.351,0.431,0.711,0.693,1.072
	c0.264,0.362,0.572,0.658,0.924,0.883v0.034c-0.527,0-0.99,0.015-1.393,0.036c-0.398,0.023-0.738,0.033-1.014,0.033
	c-0.502,0-0.91-0.105-1.223-0.319c-0.311-0.212-0.627-0.694-0.939-1.444c-0.311-0.752-0.688-1.848-1.125-3.286
	c-0.441-1.44-1.035-3.377-1.785-5.804c-0.598,1.953-1.07,3.5-1.408,4.637c-0.338,1.14-0.605,2.012-0.809,2.611
	c-0.225,0.702-0.375,1.164-0.451,1.389c-0.297,0.979-0.664,1.593-1.088,1.839c-0.43,0.252-1.004,0.378-1.729,0.378
	c-0.275,0-0.574-0.01-0.9-0.033c-0.328-0.021-0.688-0.036-1.09-0.036v-0.034c0.35-0.225,0.66-0.521,0.92-0.883
	c0.264-0.361,0.496-0.722,0.697-1.072c0.223-0.42,0.422-0.848,0.598-1.278c0.104-0.321,0.365-1.086,0.789-2.291
	c0.178-0.499,0.396-1.116,0.658-1.858c0.262-0.739,0.57-1.626,0.922-2.666c0.35-1.04,0.764-2.235,1.238-3.586
	c0.475-1.354,1.012-2.892,1.617-4.622h0.035c0.602,1.73,1.139,3.268,1.615,4.622c0.475,1.351,0.896,2.546,1.262,3.586
	c0.361,1.04,0.672,1.927,0.934,2.666c0.268,0.742,0.484,1.359,0.658,1.858C284.069,31.783,284.335,32.547,284.433,32.869"/>
<path fill="#FDC600" d="M15.025,22.526c0,4.079-4.731,10.083-9.654,12.375l-0.046-0.019c0.96,2.644,2.425,5.05,4.257,7.119
	l0.014-0.012c3.893-2.011,6.996-5.884,9.395-10.462C16.89,29.249,15.025,24.646,15.025,22.526"/>
<path fill="#FDC600" d="M25.68,22.526c-0.128,6.121-4.856,18.401-10.514,23.898c3.111,1.73,6.699,2.717,10.514,2.721
	c3.819-0.004,7.401-0.99,10.515-2.721C30.539,40.927,25.81,28.647,25.68,22.526"/>
<path fill="#FDC600" d="M36.338,22.526c0,4.079,4.726,10.083,9.653,12.375l0.046-0.019c-0.956,2.644-2.425,5.05-4.256,7.119
	l-0.016-0.012c-3.89-2.011-6.996-5.884-9.398-10.462C34.47,29.249,36.338,24.646,36.338,22.526"/>
<path fill="#FDC600" d="M21.083,26.958c2.55-6.38,3.962-13.422,4.43-18.382c0.024-0.25,0.105-1.873,0.105-2.737
	c-3.784,0.019-7.349,0.994-10.531,2.762c0.034,1.178,0.134,2.208,0.186,2.648C15.887,16.304,17.691,24.792,21.083,26.958"/>
<path fill="#FDC600" d="M14.848,11.243c0.038-0.376,0.085-1.402,0.119-2.572C8.437,12.403,4.03,19.434,4.03,27.485
	c0,0.708,0.057,1.97,0.117,2.66C11.322,27.154,14.046,19.16,14.848,11.243"/>
<path fill="#FDC600" d="M30.281,26.958c-2.551-6.38-3.963-13.422-4.431-18.382c-0.027-0.25-0.108-1.873-0.108-2.737
	c3.782,0.019,7.35,0.994,10.53,2.762c-0.035,1.178-0.128,2.208-0.183,2.648C35.474,16.304,33.668,24.792,30.281,26.958"/>
<path fill="#FDC600" d="M36.515,11.243c-0.037-0.376-0.092-1.402-0.117-2.572c6.526,3.733,10.932,10.763,10.932,18.815
	c0,0.708-0.051,1.97-0.117,2.66C40.042,27.154,37.317,19.16,36.515,11.243"/>
</svg>
